/* XPM */
static char *d859b60aafbe4129b59b1665ee3dfb00ajdq8TfrAg68J7Ak[] = {
/* columns rows colors chars-per-pixel */
"26 26 158 2 ",
"   c None",
".  c #EE9D00",
"X  c #EC9D09",
"o  c #E49312",
"O  c #EC9C12",
"+  c #EE9D18",
"@  c #EFA404",
"#  c #EFA806",
"$  c #EEA40C",
"%  c #EFAC0A",
"&  c #F1A704",
"*  c #F1AB05",
"=  c #F2AC0A",
"-  c #F2B405",
";  c #F2BC02",
":  c #F9BC01",
">  c #F3B20C",
",  c #F5BC0C",
"<  c #F9BF0A",
"1  c #EEA515",
"2  c #EEAD17",
"3  c #EFA41E",
"4  c #EEAA1B",
"5  c #F0A511",
"6  c #F4AE11",
"7  c #F5A41D",
"8  c #F1AD1A",
"9  c #F8A81F",
"0  c #F5BB14",
"q  c #F2B41B",
"w  c #F6BC1E",
"e  c #EBAD29",
"r  c #F5A520",
"t  c #F8AB22",
"y  c #F9AD29",
"u  c #F5B426",
"i  c #F8B726",
"p  c #F1BD23",
"a  c #F5B42E",
"s  c #F5BB2B",
"d  c #EAB734",
"f  c #ECB83C",
"g  c #F6B331",
"h  c #F6BB32",
"j  c #F8BD39",
"k  c #F5C505",
"l  c #FAC301",
"z  c #F4CB01",
"x  c #FBCC02",
"c  c #F6C50F",
"v  c #F9C30C",
"b  c #F5CA0B",
"n  c #FACB0C",
"m  c #F6D602",
"M  c #FBD402",
"N  c #F7DB01",
"B  c #FCDB01",
"V  c #FAD40B",
"C  c #F7DA09",
"Z  c #FBDB0D",
"A  c #F7C217",
"S  c #F9C415",
"D  c #F7CF14",
"F  c #FACA11",
"G  c #F4CA1B",
"H  c #F9CA1B",
"J  c #F5D316",
"K  c #FAD116",
"L  c #FCDB11",
"P  c #FBD41C",
"I  c #FCD81C",
"U  c #FDE401",
"Y  c #FEEB01",
"T  c #FBE109",
"R  c #FDED0B",
"E  c #FEF101",
"W  c #FEF008",
"Q  c #FAE416",
"!  c #FCEB12",
"~  c #FBE31C",
"^  c #FCEA1F",
"/  c #FFF31C",
"(  c #F9CA24",
")  c #FAC02F",
"_  c #FBD122",
"`  c #FAD921",
"'  c #FAD12B",
"]  c #FBD92A",
"[  c #F5C030",
"{  c #F9C533",
"}  c #F4C63A",
"|  c #FBDB34",
" . c #FCE424",
".. c #FEED25",
"X. c #FCE32C",
"o. c #FCED2D",
"O. c #FCE333",
"+. c #FDEC37",
"@. c #FCE13D",
"#. c #FDEE3F",
"$. c #EFBA40",
"%. c #F9C945",
"&. c #F4CA48",
"*. c #FADF46",
"=. c #FADD48",
"-. c #FACF50",
";. c #F7CE58",
":. c #F8DB56",
">. c #F7D15B",
",. c #F8D45B",
"<. c #FAE345",
"1. c #FAE24F",
"2. c #FDEC4C",
"3. c #FCE652",
"4. c #FCEB55",
"5. c #FBE15C",
"6. c #FCEC5D",
"7. c #F2CF64",
"8. c #FAD563",
"9. c #FBD768",
"0. c #FBDB6D",
"q. c #F7DA7B",
"w. c #FBDF7E",
"e. c #FBEB63",
"r. c #FBE674",
"t. c #FDE272",
"y. c #FCEF71",
"u. c #FCEA74",
"i. c #FBE97B",
"p. c #FDE879",
"a. c #FBEE7A",
"s. c #FCEC7C",
"d. c #FCF57D",
"f. c #FCEA81",
"g. c #FDF082",
"h. c #FDF084",
"j. c #FDF38D",
"k. c #FEF28D",
"l. c #FEF390",
"z. c #FDF49B",
"x. c #FEF69A",
"c. c #FCF19D",
"v. c #FEF09D",
"b. c #FCF3A3",
"n. c #FDF4A1",
"m. c #FDF6A1",
"M. c #FDF7A5",
"N. c #FEF8A2",
"B. c #FDF5AD",
"V. c #FEF6AC",
"C. c #FEF9AC",
"Z. c #FDF8B1",
"A. c #FEF9B4",
"S. c #FFFBB5",
"D. c #FEFCC3",
"F. c #FFFCC4",
"G. c #FEFCCA",
"H. c #FEFDCB",
/* pixels */
"                  v v : : : v < S                   ",
"              n l l l : : : : : : : S               ",
"          x x x l l l l : : : : : : : <             ",
"        V x x x x x F _ _ H S : : : : : : (         ",
"      V M M x x P @.3.6.y.e.<.@.' v : : : :         ",
"    C M M M V X.+.#.2.4.m.a. .^ o.X.F : : : :       ",
"    B B M M ] O.O.4.h.m.Z.b.i.<.~ Q Q v : : : <     ",
"  B B B B D J ~ 2.M.G.F.A.B.B.c.1.! R Z k : : :     ",
"  U B B V G T ! d.D.G.m.x.7.q.c.f.Q R R V : : : <   ",
"T U U B b m B ~ j.A.C.6.g.} e w.w.G N U C k : : :   ",
"T U U B z N N ` h.N.x.3.u.} @ 4 4 % z m z k l : :   ",
"Y U U Z k m m K 5.l.j.s.p.,.u X . . * - * , l l : v ",
"Y Y Y M ; z z c ( :.r.p.t.t.0.;.8 . . . . - l l l l ",
"Y Y Y V * - ; - , 0 p } ,.8.8.9.,.8 @ @ . = l l l l ",
"W Y Y B * * * * = > = # d e f 8.8.} * * @ > x l l   ",
"W E E Y - & & = h j s = $.4 2 >.9.&.* * * < x x x   ",
"R Y Y Y k @ & # 3 y a 5 g 1 8 %.-.[ * * > M B B Z   ",
"  C B B M * & * X r t 7 7 7 u ) { q * = V Y E E /   ",
"  Z M B B x = * @ O 7 9 9 t i s q = = H Y Y Y R     ",
"    M M M M n 6 * # X O + + 1 % * = A T U U Y ..    ",
"      M M M M n 0 6 = $ o O = = > n B U U U ^       ",
"      I M M M M M n A w 4 q A F M B B B U ~         ",
"        ] x x x M M M M M M M B B B B B  .          ",
"            K x x x x M M M M M M M L O.            ",
"              | P n x x x x M V I |                 ",
"                    =.| ] | *.1.                    "
};
