/* XPM */
static char *a0eb9520243947c8f622265b6710a0ca7qzWL7e6RiE5SeT6[] = {
/* columns rows colors chars-per-pixel */
"64 96 183 2 ",
"   c None",
".  c #161B29",
"X  c #1A1E2C",
"o  c #3C1E23",
"O  c #1C222E",
"+  c #2B2226",
"@  c #23232B",
"#  c #2C2B2A",
"$  c #262126",
"%  c #322224",
"&  c #3F2122",
"*  c #34262A",
"=  c #3E2729",
"-  c #3E292B",
";  c #372A2A",
":  c #3D3025",
">  c #222631",
",  c #262B36",
"<  c #2A2C35",
"1  c #2A2E38",
"2  c #352E36",
"3  c #3B2E35",
"4  c #372F38",
"5  c #2C313A",
"6  c #32353D",
"7  c #3A333B",
"8  c #34393F",
"9  c #3C373B",
"0  c #45261E",
"q  c #47281E",
"w  c #4B2B1C",
"e  c #502F1C",
"r  c #4F301C",
"t  c #4E3A1D",
"y  c #563617",
"u  c #5C3C16",
"i  c #53331A",
"p  c #583719",
"a  c #57391A",
"s  c #5B3B19",
"d  c #583817",
"f  c #603F15",
"g  c #422421",
"h  c #472821",
"j  c #4A2B22",
"k  c #412D2E",
"l  c #4F3223",
"z  c #49372A",
"x  c #523223",
"c  c #5A3B22",
"v  c #523E24",
"b  c #412F31",
"n  c #453534",
"m  c #463C3C",
"M  c #4B3E36",
"N  c #50373B",
"B  c #5E4119",
"V  c #654315",
"C  c #684715",
"Z  c #674817",
"A  c #6A4815",
"S  c #63441A",
"D  c #69471C",
"F  c #66491A",
"G  c #6D4C1B",
"H  c #714E1A",
"J  c #6F501F",
"K  c #75521C",
"L  c #79561D",
"P  c #7C591F",
"I  c #58432C",
"U  c #4A413E",
"Y  c #52413F",
"T  c #6A4A24",
"R  c #704F20",
"E  c #745322",
"W  c #785623",
"Q  c #7D5B21",
"!  c #6E5339",
"~  c #363B42",
"^  c #393E44",
"/  c #443C42",
"(  c #3C4146",
")  c #3F434A",
"_  c #454144",
"`  c #41454C",
"'  c #494749",
"]  c #454A4E",
"[  c #4C4947",
"{  c #574B49",
"}  c #574A46",
"|  c #494D52",
" . c #464A52",
".. c #4D5255",
"X. c #4E5259",
"o. c #555B55",
"O. c #5D5A55",
"+. c #52555C",
"@. c #555A5C",
"#. c #595E59",
"$. c #585355",
"%. c #575151",
"&. c #645E59",
"*. c #615954",
"=. c #5C625C",
"-. c #64635D",
";. c #6C6059",
":. c #5B5E62",
">. c #5F6464",
",. c #5E6169",
"<. c #626761",
"1. c #646A64",
"2. c #6A6C66",
"3. c #65686B",
"4. c #6B6F69",
"5. c #64646A",
"6. c #736A64",
"7. c #687067",
"8. c #6D726B",
"9. c #6F796F",
"0. c #677067",
"q. c #72746E",
"w. c #70786F",
"e. c #6B6E72",
"r. c #726B7E",
"t. c #6C7170",
"y. c #757672",
"u. c #727A71",
"i. c #797C76",
"p. c #747579",
"a. c #777A7A",
"s. c #7B7E7A",
"d. c #797471",
"f. c #815E22",
"g. c #856224",
"h. c #896625",
"j. c #8D6927",
"k. c #896728",
"l. c #8C6929",
"z. c #916D2A",
"x. c #95712B",
"c. c #9A762E",
"v. c #81776E",
"b. c #807E7D",
"n. c #7C827C",
"m. c #788077",
"M. c #888175",
"N. c #81847E",
"B. c #82887E",
"V. c #797B80",
"C. c #7F8280",
"Z. c #838583",
"A. c #858985",
"S. c #8A8A86",
"D. c #8C8D8A",
"F. c #838488",
"G. c #8D928B",
"H. c #91938E",
"J. c #8F9093",
"K. c #959692",
"L. c #969995",
"P. c #999A95",
"I. c #9C9D99",
"U. c #A09E9C",
"Y. c #9DA19B",
"T. c #A1A19D",
"R. c #A3A29F",
"E. c #A4A5A1",
"W. c #A5A9A4",
"Q. c #AAA9A6",
"!. c #ACADA9",
"~. c #AAA7A5",
"^. c #B3ABAA",
"/. c #ACB0AA",
"(. c #B2B2AE",
"). c #BFB5AB",
"_. c #B4B5B1",
"`. c #BDBDBB",
"'. c #B8B9B6",
"]. c #C4B59F",
"[. c #C1C0BE",
"{. c #C7C6C5",
"}. c #D3D2D1",
/* pixels */
"                                                                                                                                ",
"                                                                                                                                ",
"                                                                                                                                ",
"                                                                                                                                ",
"                                                                                                                                ",
"                                                                                                                                ",
"                                                                                                                                ",
"                                                                                                                                ",
"                                                                                                                                ",
"                                                                                                                                ",
"                                                                                                                                ",
"                                                                                                                                ",
"                                                                                                                                ",
"                                                                                                                                ",
"                                                                                                                                ",
"                                            S.S.S.T.R.E.Q.Q.Q.!.~.S.S./ / / / / 7 7                                             ",
"                                    S.S.I.I.U.P.P.i.. M.P.I.T.!.(.P.q., Q.E.S.q.S./ / / / 4                                     ",
"                                ^.!.Q.R.B.| ..t.n.2.2.O i.y.s.i.q.A.i.^ E.Z.L.Z.q.q.q., X.5._ /   S.                            ",
"                            ).^._.!.Y.G.O O H.A.i.y.> S.A.q.q.i.y.8.4.+.Z.1.1.u.Z., , D.D.S.T.H./ 9 u.                          ",
"                        ).U.S.K.A.i.i.8.> !.i.q.q.O S.B.=.=.8.4.<.<., ^ I.<.=.q.q., D._.Z.Z.Z.Z.N.q.X 9 u.M.6.                  ",
"                    ].~.e.. X 9.u.8.q.n.+.K.q.#.#.5.A.=.=.=.=.<.8., X.L.s.#.i.u.5 ~ K.1.2.q.q.s.q.n., E.7 7 u.u.6.              ",
"                S.P.`.e.m.O X q.8.q.s.Z.5 8.u.u.5 2.) 3.^ , 8 ^ 6 > >.^ y.y.o.6 T.I.n.8.u.2.q.q.8.5 Q.P.q.K./ 7 2 v.            ",
"            S.E.^.I.Q.n.i., q.o.o.o.u., X +.3.8.) K.T.H.W.W.X., , !.P.~ , , ` | K.#.#.u.i.q.<., , V.'.8.u.i.L.~ 2 2 2           ",
"      S.K.S.p.D.B.Z.q.i.q.| o.@.X., :.!.D.L.s.^ q.P.8.8.q.i.A.q.~ T.S.K.Z.Z.D.A., , q.#.=.8.1 , E.E.q.u.#.#.=.^ K.n.5 2 2       ",
"    r.E.R.a.Z.i.q.q.8.u.5 i.A.A.q.5 @.i.s.s.y.6 , S.S.<.1.<.1.<.O X.!.n.q.q.s.s.s., 6 q.5 5 y.y.N.q.1.=.o.8.^ Z.G.A.X.q.D.$.    ",
"d.K.!.e.G...3.9.q.4.y.` @.I.4.<.=.4.5 8.8.8.q.9.9.> D.n.u.u.q.q.O O D.] <.<.q.q., L.I.p.q.8., ..^ s.u.=.q.q.| E.8.q.6 e.E.L.%.2 ",
"S.E.4.B.q.s.] 8.8.~ 6 q.A.u.<.<.9.1.<.5 u.u.u._ 7 @ $ N I n y O O y y y ' @.q.) 6 <.<.u.W.q.O Y.s.| q.o.^ I.T.1.8.y.n.J.P.q.i.4 ",
"3.H.u.9.s.u.u.. . ( ^ ~ , <.8.8.1.8.4.5 ( 9 : l y i S & q q q + % w w q i w w _ $.%.w.w.<.u.O D.P.F.) y.e.S.q.-.q.u.` K.s.q.q.q.",
"] 8.<.s.i.2.q.+.G.P.u.9.2., 5 1.q.q.q., M y w & w e & & q q q & % w i g w w w o g i [ | ] u.> E.S.a.+...y.1...) ` @.[.P.s.n.q.q.",
"2.=.n.n.8.=.| E.L.A.u.1.q.u.6 O > < : i w w w g q 0 & & 0 0 q & g q w & q q w & o w w c } ^ , L.L.u.~ @.+...3.s.3.`.T.4.4.n.q.u.",
"=., 1 1 ) ^ 6 R.y.y.u.y.1.O , ..z y i & r w q g 0 0 g o 0 q q & % q w g g q w q o q q q w I ;.W.n.Z.s.~ n.`.(.!.L.( u.8.q.s.q.u.",
"> 1 A.n.) ^ 4.:.q.y.y.<.=.~ , y q w w & e q q & 0 0 g o q 0 q & % q w w g q q w & q q q g w w w w g i 6 E.i.q.q.1 i.] ) ( ( ` 5 ",
"3.W.D.G.=.u.i.u.~ 6 6 ( ^ > y w q q q & w w q g 0 q q g w w w @ @ s i y g w w w & q q w & q q w w o w w m O.<.8., 8.n.[.'.[._.Y.",
"Z.D.2.y.1.y.y.y.#...1 1 6 i w 0 g q q g w q q g 0 q q g i u i @ @ u w u g i i i & q w q & q q q w g w w w m _ 4.1., #.K.D.A.n.n.",
"Z.9.u.<.u.q.q.y.q.1./ q i r q q g q q g w q q g s s f g V V i O O V y q g V A D & i w q & i w w w g w q w w 6.1.w., Z.n.2.2.w.u.",
"..u.<.=.q.q.q.u.%.l i g w w q 0 0 q w g w i s q H V V g V V y O O V y g g G y C g a T c & w w w q 0 i w w q w w < n.W.=.=.4.u.u.",
"q.q.=.w.2.u.8.z i w w g q w q 0 0 q i g i u V q H V V g V V y O O V V g g G V V g A D i o s y y q g q c w o 0 w i y u.>.2.1.2.9.",
", =.q.2.u.' l g w r q g g w q 0 q i w g V V V g A V V g V V y O O V V g S V V V g C K V o u S s y g e c i o g w w g q., , ~ ~ ] ",
", 1 6 <.m i a o r w w g g w w q q S y g V V G g C V g g V y y O O V V V g C V V g V L V o V K f f g u d T o & i i o i y , 5 3.] ",
"E.X.5 < y s i o w w i g g w i q q A V g V s R g V y g j V y y O O V y V g C V & & L V C o A Q C V g V V E o & y i o y y b.Y.n.W.",
"y.P.H.6.s r r o w i i g g i i q q i u g i E y g y y g y V y y O O V y K g C V & o P V C o A f.V C g C y Q o g i i o a s y u.8.8.",
"q.q.y.  T r i o i s g g S u G q q V u g i E y g y y g.g V y y O O y y K g C V & o R V y o j.A V V g C C Q g u y g o a a s n.4.u.",
"q.y.q._ i i y o s y g g f g.V i i V u & u W V g y y g.g V s y O O y y K q A V & o E V y o j.A V y g C C C y g G g o s y y n.4.8.",
"q.y.y.U i r y o s y g & G g.f i i V V o Q y V g y H g.g K D y O O y y j C A C & o P y y o W g.y y g C y h.g o u j u B s y n.4.9.",
"y.q.q.m i w y o s S j & G K G s q V i & W y V & y j.C g D y y O O y y j C A C S o P V y o W A g.q g C C h.o o f q G B u y s.4.u.",
"y.q.8.n i i y o y A j g K V G x w C & g W V V & S j.C j u y y O y y y j V A C H o P C y o f.C h.q g C C C & o V q s F y y n.4.2.",
"6 6 8 n + + + o S V j O O O O O O O O O O O O & z.y C j V y O O y V y j V C V V g O O O O O O O O O O O O o o V O O O O O ] 5.~ ",
"u.G.y.- % + + + @ O O O O O O O O O O O O O O O O y L g u y O O y C y g P C y O O O O O O O O O O O O O O O O O O O O 5 s.W.G.) ",
"`.Q.q.- @ @ @ + V H F @ @ O O O O O O O O O O x S y L g y y O O y C C g j C V y g O O O O O O O O O O O O o z.V O O O O y.q.L.L.",
"=.q.2.- w y + o V H K j u K y w i L V g V y & j S C L g u y O O C C C V j C V C g C V y o y y V A x A C y o z.C V q S y y.n.<.q.",
"=.y.1.- w i i o V H K j K K u q i K H g V y & g S C L g y y O O A C y V j g.u C g C V y o y y A C x A C V o V x.y q B y u.n.<.q.",
"#.u.&.- w y e o V K P j L u V w C G H & V K V g S L V q y y V O y A y V j z.u C g H V y o y V A y x A C o o V x.y q u y u.s.s.8.",
"#.u.-.- w y w o V K g x V V V q C L V & V K V g S L V q V C V O y A V V j E C y g H S f o V C A V x A A o q C x.C q u y y.<.s.8.",
"#.8.-.- w i w o V g.V g u V V q C L V g H C V g S L C q C C y O y A V C g K C C g C S f o V A y V l A y o o C x.C q u y y.Z.1.0.",
"4.=.-.k w i w o V g.V g u V C g V L C g K C V & G K C 0 C C y O y A V y g K C C g C S V o C A y C x A V o o C c.C q u y 6 Z.=.u.",
"1 =.-.k w i i & V g.Q & y V V g V L o g K C V o G S C q y y y O y A C o j.V K C & h.S V o A A C C x C V K o y c.u q B ! T.5 5 ..",
"| 1 2 ; w i i & V G j.& y V y g C P o & K C V o G S q q V y y O y A C o l.C H C o g.G C o A y C q x C V L o V c.u q B s E.}.{.'.",
"`.`.i.k w i w g f y j.g s u V g C P g g C C V o G G g q C y y O A C C o l.C C C o g.K C o A C A l j A V L o c.C V q S y y.n.2.8.",
"w.Y.Q.k w y i g f i g.g a u V g C P V j C C C o A G g g C y y O O y A o l.C V V & g.K C o A C A j g q C K o c.C V q S y Z.n.2.u.",
"w.4.q.k y y y g G y k.g y y V g A P y j C C A & A G q w C y y O O y A o g.g.V V g h.H C o y C A q g q V L o c.V V i F y Z.<.2.u.",
"w.2.y.k i r y o G y h.g y y V g G P y g V C A & C A j C V y y O O y A o h.f.C V q h.K C o f.A A C q y V L o c.V C q G y Z.<.<.u.",
"w.1.y.k i i y & G y k.& W y V g K Q y h y C A o C V j C C y y O O y A o h.C P y g h.K V o Q A A C g V V L o c.V C q G y Z.-.<.u.",
"7.y.u.b i i y g y G h.g W y C q L C W j u C A o C V j C V y y O O y C C o C C q j C K V o A P y C & C P y o c.V q V F y Z.4.#.u.",
"7.y.u.b i w p g y H Q g W y C q G C W h f C A g C y j C V y y O O y u C o g.C 0 x C G C o y L y C & C P y o c.V g g F y Z.4.<.^ ",
"8.q.<.m i w y g V H Q g Q y A q y L W h f C A g C E @ q V V y O O y f V o O V 0 h.C V V o A A u C g C P y o c.V g g S y ` 1 1 ^ ",
"9., 5 * i w y g D G W g u W A q y K f.q f C A g V E O g C V y O O y V i o O y g h.C C y o A A y C q C P y o c.V g & S y A.Y.S.u.",
", 5 -.- w w y g V W L & y W V q y K f.q V C V g V v O @ C V V O O y V q O O y g h.C C y o A y y A q A E y o j.C g & S y A.y.S.Y.",
"w.`.D.- w i i g s S g.& u Q V q y K f.q V C V g # @ O O O C C O O V V o O O @ j C C V A o A y y K q P y y o l.C g & S y A.1.2.u.",
"!.(.-.- w i i g s u Q & f Q A q y H f.q V C V g # S V g @ C C O O y V O q L O @ C C V A o y y y j 0 P y y o g.C g g S y A.u.<.u.",
"2.q.&.- w i i g s C Q g V Q A q u G x g V C V g # y q q @ y C O O y V O g f.O @ h.C V A o y C y j q K y V o g.C j g u y A.A.<.u.",
"u.q.*.= q i g g s C Q g V Q A g V D x g V C V g h.@ @ @ C A y O O y V O O O O g g.V V A o C f.C j q K y V F o V j g g y y.A.<.u.",
"u.q.*.= w i g q s V f.g u Q A q C f c q y C A g h.V V q C A y O O y V C x C V j V f.V A o C g.A P q u G V g o V j V g y y.A.<.2.",
"<.q.{ g w i g g V V g.g u Q A q V f g.w V C H g h.C V q V A y O O V y C l C C H q V L A & o g.A f.h V S y o o C g C s y y.A.2.6 ",
"<.q.} = w a s g V V g.g V S A q V V Q w V C K g h.C h q C C y O O V y C j C C H q y V K o o h.V g.g H S V o o C g V s y y.W. .1 ",
"5 u.{ = w p i g V V g.g V f A q V V x e V V P q g.V g C C y y O O y V V j C C H q y C H o o h.A g.g H C A o o V g V y y I.`.!.P.",
"e., * ; w i r q K V P g u f A g V V x i y V f.q Q V G g C y O O O y V V h C C V j V A y o A h.V f.h D K A o S C g V y y y.A.2.2.",
"!.y.3 ; q i q j V y P g y f A g V V c i y V g.g Q C H h V y O O O y V C h V V V g C A y o A h.C f.h y K A o f L q V s y y.A.2.u.",
"#.y.Y q q w q h V y P g y V A q C y l y y V g.g Q C G h V y O O y y V g h V V y g C A y o A y f.I h C L A o V Q O 0 s y y.A.2.u.",
"#.=.; % % % q g V V # O @ O O O O O O @ O O g.q y g.H g V y O O y y C & g y C y g O O @ O O O O O O O O O o f.O O O O O y.Z.1.u.",
"y.=.* % % % % @ O O O O @ O O O O O O O O O O O O g.S g V y O O y y C & g s C O O O O O O O O O O O O O O O O O O O O O y.C.8.u.",
"=.=.{ % % % i @ O O @ @ O O O O O O O O O O @ g y f.H g V y O @ y y V & & u C g g O O O O O O O O O O O O O f.O O O O O y.C.w.u.",
"=.u.O.% + % y & Q V C O O O K g V F q V V D g.g g Q g g u y O @ y y C o & B V g j C y o o A V Q C q B y t o f.y O O y O y.C.1.u.",
"y.=.q.w w i y 0 Q V C T C y L g C F q w V D Q g g Q g g B y O @ y V C o & B y g l y y o o A V P A g C y u & o y r w y y y.A.2.9.",
"y.#.y.n w i i q Q y C g A y L g F D y w D V J q g Q g g B y O O u V C o L u y g j V y o o A y P u q C y L o o V h V V y y., , , ",
"q.=., ; w i i g Q y V g A G A g F y y r V V K & j C C j B y O O s V A o c u y g P V y o o A W V u q C y L o J C g V V y i.W.D.2.",
",., , k q r q q V W V g C G A g V u S w V V g.& j V C g G y O O y V A o x g V g P V s A o A E y s g C V G o B C q D V y Z.D.D._.",
"/.!.2.k q w q 0 V Q V g C L A g y S y x V g.V & Q V C g x y O O O s A o s q V g P V S A o A Q y s g C V F o D V g B V y y.Z.4.u.",
"u.y.=.k w i q q F f.C g C L A g V S w s V g.V & L y w q c y O O O s A y q j V g P y G A o P A C Z g A F F o D V g S D V y.Z.4.u.",
"u.y.O.- q i i q F Q C j A V A g V G x i g.C C & K y V q c y O O O s B y q g C g P y R A o P A A Z g A C V o B V w B F y 0.Z.8.u.",
"u.u.%.- r i i 0 V Q C E A V y g V y x i h.V & q G y C q c y y O O y B V g g C g C E G A o G A A A g A C V o D V g s D y 8.Z.4.u.",
"9.q.&.- r i i 0 V V f.q C V y g V y q W H C & g D y C x q y y O O y S C & g C C & f.A A o S A A A & V f.y o D V g D D y q.) 5 ( ",
") , < - r i i q V V Q j C V V g V V q j.G C o g u V C x C y y O O y S C o & A C & g.A A o s A A A & C g.y o D D g D D y E.{.L.`.",
"!.(.< * w y p q C V V & V V y g V V c q y C y V g V C x C C V O O s F C o V C C g V f.A o o A A A & h.C V o V F g g u y Y.{.L.u.",
"u.y.O.3 i r u w C y C g V V y g V V x i V C V q & V g.q C C C O O y V C o V C C q V P A o o A A C o h.V C o V S g g B y y.Z.<.u.",
"u.y.=.3 i i V q V y y g V V y g y y y q V C V g g Q f.0 y C y O O y C y o V V y q V y G o o A A y o h.V V o V y g g B y q.<.9.9.",
"u.u.<.3 y y V w C y y y C V y g y y y V V y y g y y y i y y y y O y y y o y y y V y y y o o A A i o f.y V o y y g g S y y.<.<.u."
};
