/* XPM */
static char *da9405ac5cb84b91906c4f772501cb1eSuW3EK4z4eD5GOXB[] = {
/* columns rows colors chars-per-pixel */
"66 61 94 2 ",
"   c None",
".  c #010101",
"X  c #080707",
"o  c #0D0C0C",
"O  c #100F0F",
"+  c #131212",
"@  c #191717",
"#  c #1A1917",
"$  c #171818",
"%  c #1C1A1A",
"&  c #211F1F",
"*  c #2F1D1D",
"=  c #321D1D",
"-  c #3D1D1D",
";  c #1F1F20",
":  c #252323",
">  c #292423",
",  c #2B2827",
"<  c #2B292A",
"1  c #342222",
"2  c #3A2121",
"3  c #302F2F",
"4  c #37302A",
"5  c #333232",
"6  c #3A3533",
"7  c #3C3838",
"8  c #431E1E",
"9  c #462121",
"0  c #4B2222",
"q  c #532D2A",
"w  c #443A2F",
"e  c #4B3333",
"r  c #433E3E",
"t  c #523C3C",
"y  c #4D443C",
"u  c #52463A",
"i  c #5D413D",
"p  c #464142",
"a  c #4A4444",
"s  c #4E4949",
"d  c #524343",
"f  c #594242",
"g  c #574C44",
"h  c #534C4C",
"j  c #584B4B",
"k  c #5D5147",
"l  c #575050",
"z  c #5B5353",
"x  c #624F46",
"c  c #67594C",
"v  c #685A4C",
"b  c #605959",
"n  c #736253",
"m  c #7C6854",
"M  c #7D6C5C",
"N  c #676161",
"B  c #6A6363",
"V  c #6C6767",
"C  c #6D6868",
"Z  c #6F6A6A",
"A  c #706A6A",
"S  c #706B6B",
"D  c #716C6C",
"F  c #736E6E",
"G  c #746E6E",
"H  c #746F6F",
"J  c #767070",
"K  c #787373",
"L  c #7C7777",
"P  c #8A6454",
"I  c #85705C",
"U  c #97705D",
"Y  c #877465",
"T  c #9B7460",
"R  c #9C7561",
"E  c #A08975",
"W  c #A58D78",
"Q  c #AB9076",
"!  c #BC9D7D",
"~  c #D5B290",
"^  c #DEBA96",
"/  c #E3BB97",
"(  c #C1B7B1",
")  c #EBC59E",
"_  c #EFC8A0",
"`  c #F0C8A0",
"'  c #F1C9A1",
"]  c #F2CAA2",
"[  c #F3CBA3",
"{  c #F4CBA3",
"}  c #F5CCA4",
"|  c #F5CDA5",
" . c #F6CEA5",
".. c #F7CEA5",
/* pixels */
"                                                                                                                                    ",
"                                                                                                                                    ",
"                                                                                                                                    ",
"                                                                                                                                    ",
"                                                                                                                                    ",
"                                                                                                                                    ",
"                                                                                                                                    ",
"                                    X O + + + X                                                                                     ",
"                                X % % & & & & % % +                                                                                 ",
"                              X % & & & & & & & & & +                                                                               ",
"                              + : & & & & & & & & & %                                                                               ",
"                            X % & & & & & & & & & & & o                                                                             ",
"                            O & & & & & & & & % % % % X                                                                             ",
"                            O & & & & % % % @ O O O o X                                                                             ",
"                            X + + + + o + + + + X o +                                                                               ",
"                            o @ @ + X + % % % 4 M > %                                                                               ",
"                            X O o X + % % % $ u ( < %                                                                               ",
"                              o o + % % % % % % ; + %                                                                               ",
"                              % % % % % % % % % # > >                                 h                                             ",
"                            : : % % % % % % % % w !     z z z z z z a r a a 7 p   a h h h d 9 0 0 8 8 0 0                         L ",
"                        : : : : : & % & & & % % # >   z z z z z l s r b H N s V h a l l h d 0 0 0 0 0 0 0 f Z A A                 H ",
"                        : : : : : : > - - - = * * = h l l l h s r r a a h s s h a h z j e e 9 8 8 8 8 8 8 t N N B F             K F ",
"                        : : : : : : : > 1 - 8 8 8 8 d l l s p p a h l l l l l l l l l e - 8 8 8 8 8 8 8 8 d H J H Z A A A A A A A V ",
"                        : : : : : : : : : > 1 2 8 9 d h h h s h h h h h h h h h h h h i U T T R P 9 8 8 8 t b b b b b b b b b b b   ",
"                        : : : : : : : : : : : : > > g E E E W Y r p a a h h s s a   p x ] } } } / q   8 8                           ",
"                          + : : : : : : : : : : : : c } } { Q v , 7     a a r r     : y ~ ^ ] ] ]                                   ",
"                          + % & : : : : : : : : : : c ] ] _ k : , , ,   a a a a < : : , 6 y                                         ",
"                          + % % % : : : : : : : : : v } } ) g : : : : < a a a a , : : : :                                           ",
"                          + % % % % X + % % % : & % 6 m I n , : : : : > 6 6 6 6 > : : :                                             ",
"                          + % % % % X X X X X 3 + X X . + % & : : : : : : : : : : : %                                               ",
"                          + % % % % X + @ @ @ % % @ @ X +     % : : : : : : : : : %                                                 ",
"                          + % % % % X + % % % % % % % X +         % : : : : & %                                                     ",
"                          + % % % % X + % % % % % % % X +             % %                                                           ",
"                          o % % % % X + % % % % % % % X +                                                                           ",
"                          o % % % % X % : : : % : : : + +                                                                           ",
"                          o % % % % X : 5 3 3 : , 5 5 : +                                                                           ",
"                          X o o o o X < 5 6 5 + < 6 5 : .                                                                           ",
"                          . . . . . . : 5 5 < X : 5 5 : .                                                                           ",
"                          . X o o o o < 5 5 < + < 5 5 : X                                                                           ",
"                          o X O % % % : < < < % : % % & @                                                                           ",
"                          % + X O % % % % % % + X X O % %                                                                           ",
"                        % % % + X O % % % % + X o % % % %                                                                           ",
"                        % % % % + X O % % + X o % % % % %                                                                           ",
"                      % % % % % % + X o % X o % % % % % % %                                                                         ",
"                      % % % % % % % + X   @ % % % % % % % % %                                                                       ",
"                    % % % % % % % % %         % % % % % % % % %                                                                     ",
"                    % % % % % % % %             % % % % % % % %                                                                     ",
"                  % % % % @ % @ %                 % % % % % % % %                                                                   ",
"                  % % % % % % @                     % % % % % % % @           .                                                     ",
"              . . + % % % %                           % % % % % @ X .     . . . .                                                   ",
"            . . . . o o o                               % % % % o . . . . . . . . .                                                 ",
"          . . . . . . .                                   % % o . . . . . . . . . .                                                 ",
"          . . . . . . .                                   % o . . . . . . . . . .                                                   ",
"          . . . . . . . .                                   . . . . . . . . . .                                                     ",
"            . . . . . . .                                     . . . . . . . .                                                       ",
"              . . . . . . .                                     . . . . . .                                                         ",
"                . . . . . . .                                     . . . .                                                           ",
"                  . . . . .                                         .                                                               ",
"                      .                                                                                                             ",
"                                                                                                                                    ",
"                                                                                                                                    "
};
