/* XPM */
static char *c65feac4e43e446887cbf71ffbf17b59y2x2IixSlGiYENLj[] = {
/* columns rows colors chars-per-pixel */
"131 122 44 1 ",
"  c None",
". c black",
"X c #1A1717",
"o c #1C1A1A",
"O c gray11",
"+ c #211F1F",
"@ c #242222",
"# c #262424",
"$ c #292727",
"% c #302E2E",
"& c #302F2F",
"* c #363131",
"= c #3B3535",
"- c gray22",
"; c #3B3838",
": c #3D3A3A",
"> c #401D1D",
", c #421D1D",
"< c #421E1E",
"1 c #451F1F",
"2 c #472020",
"3 c #4A2121",
"4 c #4A2222",
"5 c #4A2323",
"6 c #4D2222",
"7 c #4F2323",
"8 c #403D3D",
"9 c #142257",
"0 c #454242",
"q c gray28",
"w c #4D4646",
"e c #524A4A",
"r c #544C4C",
"t c #544D4D",
"y c #574F4F",
"u c #575050",
"i c #5C5454",
"p c #666565",
"a c #6E6969",
"s c #787373",
"d c #7D7878",
"f c #857F7F",
"g c #F2CAA2",
"h c white",
/* pixels */
"                                                                                                                                   ",
"                                                                                                                                   ",
"                                                                                                                                   ",
"                                                                                                                                   ",
"                                                                                                                                   ",
"                                                                                                                                   ",
"                                                                                                                                   ",
"                                                                                                                                   ",
"                                                                                                                                   ",
"                                                                                                                                   ",
"                                                                                                                                   ",
"                                                                                                                                   ",
"                                                                                                                                   ",
"                                                                                                                                   ",
"                                     ..........                                                                                    ",
"                                  ....++++++++....                                                                                 ",
"                                ..++++++++++++++++..                                                                               ",
"                               ..++++++++++++++++++.                                                                               ",
"                              ..++++++++++++++++++++.                                                                              ",
"                              .++++++++++++++++++++++.                                                                             ",
"                             ..++++++++++++++++++++++.                                                                             ",
"                             .++++++++++++++++++++++++.                                                                            ",
"                            ..++++++++++++++++++++++++.                                                                            ",
"                            .+++++++++++++++++++++++++.                                                                            ",
"                            .+++++++++++++++++++++++++.                                                                            ",
"                            .+++++++++++++++++++++++++.                                                                            ",
"                            .++++++++++++++++..........                                                                            ",
"                            .+++++++++++++++++++++++++.                                                                            ",
"                            .+++++++++.................                                                                            ",
"                            ...........OOOOOOOOOOOOOOO                                                                             ",
"                            .oooooooo.OOOOOOOOO....OOO                                                                             ",
"                            .ooooooo..OOOOOOOO.ggg.OOO                                                                             ",
"                            .oooooo..OOOOOOOOO.ghh.OOO                                                                             ",
"                            .o......OOOOOOOOOO.gh9.OOO                                                                             ",
"                            .......OOOOOOOOOOO.....OOO                                                                             ",
"                              OOOOOOOOOOOOOOOOOOOOOOOO                                                                             ",
"                              OOOOOOOOOOOOOOOOOOOOOOO                              e                                               ",
"                              OOOOOOOOOOOOOOOOOO.....                               eeee                                          d",
"                               OOOOOOOOOOOOOOOOO.gggg                              eeeeeete                                       d",
"                          #######OOOOOOOOOOOOOOO.ggg   iiiiiiiiiiiiii*************ettttteee,,7777,,,,77777                       dd",
"                         ########+OOOOOOOOOOOOOO....  iiiiiiiiiiiiii**ffffff.ffpp*etttttttt333333333333377issssss                sa",
"                        ###########+OOOOOOOOOOOOOOOO iiiiiiiiiiiu0000:fffff.fffpp*iiiiitttt333333333333337iaaaaaas               sa",
"                       $############+,,,,,,,OOOOOOO iiiiuuuuuuuu0;;;;*************iiiiiittt33   3   ,   33iiiiiiiss             ssa",
"                       $##############,,,,,,,,,,,,,,uuuuuuuiu000;;;uuuuuiiiiiiiii*iiiii,,,,,,,,,,,,,,,2111i      aas           ssaa",
"                       @################,,,,,,,,,,,,uuuuuuu000888:uuuuuuiiiiiiiiiiiiii,,111111111,,,,1113,iffffffaassssssssssssssaa",
"                       ###################11221,,,,1uuuuuu:::88uuuuuuuuuuuuuuuuuiiiiuu,,1,,,,,,,,,,,,22,,,iaaaaaaaaaaaaaaaaaaaaaaaa",
"                       #@@##################221,1111iiiuuiiuuuuuuuuuuuuuuuuuuuuuuiiuuu,,,211111111,,,111,,iiiiiiiiiiiiiiiiiiiiiiiii",
"                       @@@#####################11111wttttttttttttttttuuwwwwwwwwwwwwttt1gggggggggg,,,,,,,,,i                        ",
"                        @@@#########################wwwwwwwwwwwwwwwwwwwwwttttttwttwuuu,gggggggggg,,,,,,,,,                         ",
"                        %#@##########################gggggggggg# *0=   *aaa*iii*     ##gggggggggg                                  ",
"                         #.##########################gggggggggg##*0=   *********    ###gggggggggg                                  ",
"                         @.oo########################ggggggg##.##*0=   *f*a*i*i*  #####ggggggggg                                   ",
"                         @.ooo#######################ggggggg####**#=#  *i*i*i*i* ##########                                        ",
"                         @.ooooo#####################ggggggg****###=## *i*i*i*i*##########                                         ",
"                         @.oooooo####################ggggggg###########*i*i*i*i*#########                                          ",
"                         @.oooooooo##################ggggggg###########*i*i*i*i*########o                                          ",
"                         @.ooooooooo..oooo###########gggggg############*i*i*i*i*#######o                                           ",
"                         @.ooooooooo..oooooooooooooooo..oo############################o                                            ",
"                         @.ooooooooo..........qq........oo##########################oo                                             ",
"                         @.ooooooooo..........qq........oooooo#####################oo                                              ",
"                         @.ooooooooo..oooooooooooooooo..oo   oo###################oo                                               ",
"                         @.ooooooooo..oooooooooooooooo..oo    ooo###############ooo                                                ",
"                         @.ooooooooo..oooooooooooooooo..oo      ooo###########ooo                                                  ",
"                         @.ooooooooo..oooooooooooooooo..oo        ooo#####ooooo                                                    ",
"                         @.ooooooooo..oooooooooooooooo..oo          ooooooo                                                        ",
"                         @.ooooooooo..oooooooooooooooo..oo                                                                         ",
"                          .ooooooooo..oooooooooooooooo..oo                                                                         ",
"                          .ooooooooo..oooooooooooooooo..oo                                                                         ",
"                          .ooooooooo..oooooooooooooooo..oo                                                                         ",
"                          .ooooooooo..%%%%%%%%oo%%%%%%%.oo                                                                         ",
"                          .ooooooooo..%%%%%%%%oo%%%%%%%.oo                                                                         ",
"                          .ooooooooo..%%%%%%%%oo%%%%%%%.o                                                                          ",
"                          .ooooooooo..%%%%%%%%oo%%%%%%%..                                                                          ",
"                          ............;;;;;;;-..;;;;;;;..                                                                          ",
"                          ............%%%;;&%&..%%%;%%%..                                                                          ",
"                          ............%%%%%%&&..%%%%%&&..                                                                          ",
"                          ............%%%&&%%%..%%%%%%%..                                                                          ",
"                          ...XXooooooo%%%%%%%%oo%%%%&%%.X                                                                          ",
"                          ....oooooooo;;;;;;;;oo;-;;;;;XX                                                                          ",
"                          XX...ooooooooooooooooooo....oXX                                                                          ",
"                         oXoo...oooooooooooooooo.....oooX                                                                          ",
"                         ooooo...oooooooooooooo....ooooXX                                                                          ",
"                        ooooooo...oooooooooooo...oooooooo                                                                          ",
"                        ooXooooo...oooooooooo...oooooooooo                                                                         ",
"                       ooXooooooo...oooooooo...ooooooooooo                                                                         ",
"                       ooXoooooooo...oooooo...ooooooooooooo                                                                        ",
"                      ooooooooooooo...oooo...oooooooooooooo                                                                        ",
"                      oooooooooooooo...X o..oooooooooooooooo                                                                       ",
"                     oooooooooooooooo...  ooooooooooooooooooo                                                                      ",
"                     ooooooooooooooooo.    ooooooooooooooooooo                                                                     ",
"                    oooooooooooooooooX       ooooooooooooooooo                                                                     ",
"                    oooooooooooooXooX         ooooooooooooooooo                                                                    ",
"                    oooooooooooooXoX           ooooooooooooooooo                                                                   ",
"                   oooooo#XooooXoXX             ooooooooooooooooo                                                                  ",
"                   ooooooXXXooXXoX               ooooooooooooooooo                                                                 ",
"                  oooooooXXXXXXXX                 oooooooooooooooo                                                                 ",
"                  oooooooXXXXXXX                   oooooooooooooooo                                                                ",
"                 .ooooooooooooX                     ooooooooooooooo         ....                                                   ",
"               ...ooooooooooo                        ooooooooooooo..      .......                                                  ",
"              .....ooooooooo                          ooooooooooo.....   .........                                                 ",
"             .......ooooooo                            oooooooooo..................                                                ",
"            ..............                              oooooooo....................                                               ",
"           ..............                                oooooo....................                                                ",
"          ..............                                  oooo....................                                                 ",
"          ..............                                  ooo....................                                                  ",
"          ..............                                   o....................                                                   ",
"          ...............                                  ....................                                                    ",
"           ..............                                   ..................                                                     ",
"            ..............                                   ................                                                      ",
"             ..............                                   ..............                                                       ",
"              ..............                                   ............                                                        ",
"               ..............                                   ..........                                                         ",
"                .............                                    ........                                                          ",
"                 ............                                     ......                                                           ",
"                  ..........                                       ....                                                            ",
"                   ........                                                                                                        ",
"                    ......                                                                                                         ",
"                                                                                                                                   ",
"                                                                                                                                   ",
"                                                                                                                                   ",
"                                                                                                                                   ",
"                                                                                                                                   "
};
